Coordinates
version=1
nRows=7
nColumns=46
inDegrees=yes

Units are S.I. units (second, meters, Newtons, ...)
Angles are in degrees.

endheader
time	pelvis_tilt	pelvis_list	pelvis_rotation	pelvis_tx	pelvis_ty	pelvis_tz	bb_angle	bb_tx	bb_ty	bb_tz	hip_flexion_r	hip_adduction_r	hip_rotation_r	knee_angle_r	knee_angle_r_beta	ankle_angle_r	subtalar_angle_r	mtp_angle_r	crank_angle_r	hip_flexion_l	hip_adduction_l	hip_rotation_l	knee_angle_l	knee_angle_l_beta	ankle_angle_l	subtalar_angle_l	mtp_angle_l	crank_angle_l	lumbar_extension	lumbar_bending	lumbar_rotation	arm_flex_r	arm_add_r	arm_rot_r	elbow_flex_r	pro_sup_r	wrist_flex_r	wrist_dev_r	arm_flex_l	arm_add_l	arm_rot_l	elbow_flex_l	pro_sup_l	wrist_flex_l	wrist_dev_l
      5.00000000	    -17.34295808	     -4.32922456	      7.04276428	      0.32635182	      1.12711565	     -0.28071121	      0.00000000	      0.50000000	      0.00000000	      0.25000000	     54.59125982	     -5.35825257	     -2.32051919	     95.70896243	      1.67043652	    -19.76474125	    -16.48689917	      0.00000000	      0.00000000	     51.03647393	     -0.54965606	      8.74984113	     54.06444368	      0.94360255	     -2.61153042	    -10.87056123	      0.00000000	      0.00000000	    -65.49592598	      2.88998713	     -3.80605000	     54.19402093	    -14.84980140	     16.41680624	     71.37337916	     49.75108757	      0.00000000	      0.00000000	     52.67822461	    -18.57554792	     21.12161984	     83.71347179	     50.42242807	      0.00000000	      0.00000000
      5.00500000	    -17.20696360	     -4.75669037	      6.86307370	      0.32643605	      1.12633561	     -0.28133556	      0.00000000	      0.50000000	      0.00000000	      0.25000000	     55.76174628	     -5.18389935	     -2.30060822	     97.92438990	      1.70910302	    -17.43100778	    -15.10197476	      0.00000000	      0.00000000	     49.40372673	     -1.10016284	      8.89451064	     51.84702207	      0.90490124	     -3.88254196	    -11.36622142	      0.00000000	      0.00000000	    -65.52957911	      3.31896809	     -3.68419740	     54.65287226	    -14.69039005	     17.35236558	     71.20345060	     49.83756217	      0.00000000	      0.00000000	     51.95201717	    -18.99294462	     20.27911707	     84.35976653	     50.45721586	      0.00000000	      0.00000000
      5.01000000	    -17.28480066	     -5.51040123	      6.64258666	      0.32616500	      1.12535889	     -0.28156409	      0.00000000	      0.50000000	      0.00000000	      0.25000000	     57.20168708	     -4.72417220	     -2.67376336	     99.90372163	      1.74364888	    -16.15214475	    -15.31513382	      0.00000000	      0.00000000	     48.12953432	     -2.05188102	      9.03909522	     49.73370744	      0.86801694	     -4.75575465	    -11.00278766	      0.00000000	      0.00000000	    -65.30980296	      3.88247633	     -3.00882575	     54.86758927	    -14.53535034	     17.50246113	     71.22811247	     49.85837107	      0.00000000	      0.00000000	     51.64377119	    -19.21534127	     20.13969926	     84.38794916	     50.45432651	      0.00000000	      0.00000000
      5.01500000	    -17.35830389	     -5.88952587	      6.30380381	      0.32601701	      1.12449272	     -0.28188812	      0.00000000	      0.50000000	      0.00000000	      0.25000000	     58.66773318	     -4.51326883	     -2.58290755	    101.92233919	      1.77888040	    -13.98163927	    -14.02559266	      0.00000000	      0.00000000	     46.70565583	     -2.74813030	      8.80831018	     47.57897203	      0.83040972	     -6.13830423	    -11.41273822	      0.00000000	      0.00000000	    -65.13507250	      4.21580900	     -2.81787388	     55.22750857	    -14.35088880	     18.25502543	     71.10911126	     49.93458542	      0.00000000	      0.00000000	     51.00476798	    -19.61853627	     19.50195612	     84.74281245	     50.46707687	      0.00000000	      0.00000000
      5.02000000	    -17.42869132	     -6.39429934	      6.06082560	      0.32585046	      1.12375565	     -0.28213716	      0.00000000	      0.50000000	      0.00000000	      0.25000000	     60.09236651	     -4.33026074	     -2.79879262	    103.72731087	      1.81038310	    -12.44910044	    -13.64151429	      0.00000000	      0.00000000	     45.30181722	     -3.50404800	      8.73373684	     45.46948368	      0.79359220	     -7.19158630	    -11.37231843	      0.00000000	      0.00000000	    -64.99613328	      4.70735152	     -2.62451932	     55.80951858	    -14.14099344	     19.25288132	     70.73873413	     50.01057844	      0.00000000	      0.00000000	     50.31287813	    -20.15737623	     18.79608256	     85.32346233	     50.52017198	      0.00000000	      0.00000000
      5.02500000	    -17.59031532	     -6.79905545	      5.58671478	      0.32579556	      1.12308986	     -0.28211830	      0.00000000	      0.50000000	      0.00000000	      0.25000000	     61.64945919	     -4.01079544	     -2.82618351	    105.40901602	      1.83973439	    -11.07691635	    -13.46185577	      0.00000000	      0.00000000	     43.93180375	     -4.36753191	      8.30357017	     43.41824172	      0.75779127	     -8.09001651	    -11.18254202	      0.00000000	      0.00000000	    -64.79473102	      4.91564032	     -2.19062333	     56.07310296	    -14.02951879	     19.65748867	     70.71123614	     50.05929395	      0.00000000	      0.00000000	     49.93635641	    -20.45238383	     18.50349910	     85.36544660	     50.51134775	      0.00000000	      0.00000000
      5.03000000	    -17.75781267	     -7.14120930	      5.16404679	      0.32570722	      1.12249281	     -0.28215811	      0.00000000	      0.50000000	      0.00000000	      0.25000000	     63.20020894	     -3.84818749	     -2.88193143	    106.96448510	      1.86688245	     -9.77765062	    -13.06753049	      0.00000000	      0.00000000	     42.59494023	     -5.15289052	      7.81909183	     41.46580188	      0.72371477	     -9.03343576	    -10.84853719	      0.00000000	      0.00000000	    -64.61128230	      5.15954847	     -1.82320749	     56.38173172	    -13.97838204	     20.15908384	     70.68209686	     50.11672568	      0.00000000	      0.00000000	     49.56518329	    -20.75064706	     18.18875755	     85.42003937	     50.50298875	      0.00000000	      0.00000000
